<?xml version="1.0" encoding="UTF-8" standalone="no"?>
<svg
   xmlns:dc="http://purl.org/dc/elements/1.1/"
   xmlns:cc="http://creativecommons.org/ns#"
   xmlns:rdf="http://www.w3.org/1999/02/22-rdf-syntax-ns#"
   xmlns:svg="http://www.w3.org/2000/svg"
   xmlns="http://www.w3.org/2000/svg"
   xmlns:sodipodi="http://sodipodi.sourceforge.net/DTD/sodipodi-0.dtd"
   xmlns:inkscape="http://www.inkscape.org/namespaces/inkscape"
   version="1.1"
   id="svg2"
   xml:space="preserve"
   width="637.05334"
   height="542.18665"
   viewBox="0 0 637.05334 542.18665"
   sodipodi:docname="dftba.eps"><metadata
     id="metadata8"><rdf:RDF><cc:Work
         rdf:about=""><dc:format>image/svg+xml</dc:format><dc:type
           rdf:resource="http://purl.org/dc/dcmitype/StillImage" /></cc:Work></rdf:RDF></metadata><defs
     id="defs6" /><sodipodi:namedview
     pagecolor="#ffffff"
     bordercolor="#666666"
     borderopacity="1"
     objecttolerance="10"
     gridtolerance="10"
     guidetolerance="10"
     inkscape:pageopacity="0"
     inkscape:pageshadow="2"
     inkscape:window-width="640"
     inkscape:window-height="480"
     id="namedview4" /><g
     id="g10"
     inkscape:groupmode="layer"
     inkscape:label="ink_ext_XXXXXX"
     transform="matrix(1.3333333,0,0,-1.3333333,0,542.18667)"><g
       id="g12"
       transform="scale(0.1)"><path
         d="M 1222.99,3478.02 C 971,3215.72 756.113,2832.04 780.488,2308.02 c 22.973,-493.88 226.952,-832.42 502.502,-1102.5 272.63,-267.219 671.24,-458.161 1155,-442.5 483.37,15.652 849.49,208.531 1117.5,487.5 257.18,267.71 464.16,654.66 450,1162.5 -13.66,489.99 -239.08,859.17 -495,1110 -260.06,254.89 -660.89,466.24 -1162.5,450 -493.45,-15.97 -881.92,-241.96 -1125,-495 z m 1027.5,577.5 c 538.72,44.23 997.88,-166.3 1275,-420 288.53,-264.15 514.85,-626.69 555,-1140 42.65,-545.46 -138.58,-983.98 -405,-1275 -275.68,-301.122 -635.65,-515.95 -1140,-555 -500.89,-38.778 -968.88,160.882 -1260,420 -304.095,270.67 -523.576,630.93 -570.002,1125 -53.629,570.7 155.403,992.32 405.002,1275 245.34,277.86 641.57,529.09 1140,570"
         style="fill:#100f0d;fill-opacity:1;fill-rule:nonzero;stroke:none"
         id="path14" /><path
         d="M 1222.99,3478.02 C 971,3215.72 756.113,2832.04 780.488,2308.02 c 22.973,-493.88 226.952,-832.42 502.502,-1102.5 272.63,-267.219 671.24,-458.161 1155,-442.5 483.37,15.652 849.49,208.531 1117.5,487.5 257.18,267.71 464.16,654.66 450,1162.5 -13.66,489.99 -239.08,859.17 -495,1110 -260.06,254.89 -660.89,466.24 -1162.5,450 -493.45,-15.97 -881.92,-241.96 -1125,-495 z m 1027.5,577.5 c 538.72,44.23 997.88,-166.3 1275,-420 288.53,-264.15 514.85,-626.69 555,-1140 42.65,-545.46 -138.58,-983.98 -405,-1275 -275.68,-301.122 -635.65,-515.95 -1140,-555 -500.89,-38.778 -968.88,160.882 -1260,420 -304.095,270.67 -523.576,630.93 -570.002,1125 -53.629,570.7 155.403,992.32 405.002,1275 245.34,277.86 641.57,529.09 1140,570 z"
         style="fill:none;stroke:#ffffff;stroke-width:10;stroke-linecap:butt;stroke-linejoin:miter;stroke-miterlimit:10;stroke-dasharray:none;stroke-opacity:1"
         id="path16" /><path
         d="m 3622.99,3898.02 c 316.15,-48.85 511.13,-283.86 585,-600 -245.84,119.16 -385.59,409.41 -585,600"
         style="fill:#100f0d;fill-opacity:1;fill-rule:nonzero;stroke:none"
         id="path18" /><path
         d="m 3622.99,3898.02 c 316.15,-48.85 511.13,-283.86 585,-600 -245.84,119.16 -385.59,409.41 -585,600 z"
         style="fill:none;stroke:#ffffff;stroke-width:10;stroke-linecap:butt;stroke-linejoin:miter;stroke-miterlimit:10;stroke-dasharray:none;stroke-opacity:1"
         id="path20" /><path
         d="m 555.488,3275.52 c 66.707,325.79 253.102,531.91 570.002,607.5 -162.939,-178.51 -298.853,-402.1 -495.002,-562.5 -21.699,-17.74 -48.765,-48.26 -75,-45"
         style="fill:#100f0d;fill-opacity:1;fill-rule:nonzero;stroke:none"
         id="path22" /><path
         d="m 555.488,3275.52 c 66.707,325.79 253.102,531.91 570.002,607.5 -162.939,-178.51 -298.853,-402.1 -495.002,-562.5 -21.699,-17.74 -48.765,-48.26 -75,-45 z"
         style="fill:none;stroke:#ffffff;stroke-width:10;stroke-linecap:butt;stroke-linejoin:miter;stroke-miterlimit:10;stroke-dasharray:none;stroke-opacity:1"
         id="path24" /><path
         d="m 4440.49,3380.52 c 130.53,-129.78 217.01,-316.63 217.5,-540 0.53,-240.7 -132.43,-407.25 -150,-615 -87.89,349.61 -393.03,481.97 -442.5,870 130.25,-207.24 400.75,-274.25 420,-592.5 -44.13,273.04 81.26,659.39 -45,877.5"
         style="fill:#100f0d;fill-opacity:1;fill-rule:nonzero;stroke:none"
         id="path26" /><path
         d="m 4440.49,3380.52 c 130.53,-129.78 217.01,-316.63 217.5,-540 0.53,-240.7 -132.43,-407.25 -150,-615 -87.89,349.61 -393.03,481.97 -442.5,870 130.25,-207.24 400.75,-274.25 420,-592.5 -44.13,273.04 81.26,659.39 -45,877.5 z"
         style="fill:none;stroke:#ffffff;stroke-width:10;stroke-linecap:butt;stroke-linejoin:miter;stroke-miterlimit:10;stroke-dasharray:none;stroke-opacity:1"
         id="path28" /><path
         d="m 307.988,3343.02 c -107.441,-223.37 32.5,-592.82 -30,-885 35,305 277.024,402.98 412.5,607.5 -28.437,-366.57 -321.699,-533.29 -420,-855 -14.57,192.48 -143.593,353.79 -157.5,562.5 -16.4255,246.55 79.492,419.83 195,570"
         style="fill:#100f0d;fill-opacity:1;fill-rule:nonzero;stroke:none"
         id="path30" /><path
         d="m 307.988,3343.02 c -107.441,-223.37 32.5,-592.82 -30,-885 35,305 277.024,402.98 412.5,607.5 -28.437,-366.57 -321.699,-533.29 -420,-855 -14.57,192.48 -143.593,353.79 -157.5,562.5 -16.4255,246.55 79.492,419.83 195,570 z"
         style="fill:none;stroke:#ffffff;stroke-width:10;stroke-linecap:butt;stroke-linejoin:miter;stroke-miterlimit:10;stroke-dasharray:none;stroke-opacity:1"
         id="path32" /><path
         d="m 4455.49,1835.52 c 53.35,146.4 67.18,281.78 127.5,420 66.1,151.49 146.29,299.31 120,502.5 59.12,-104.21 76.93,-256.77 67.5,-397.5 -22.95,-342.26 -234.75,-540.65 -382.5,-750 18.7,390.3 -198.76,638.16 -172.5,1035 83.55,-261.17 357.24,-464.39 240,-810"
         style="fill:#100f0d;fill-opacity:1;fill-rule:nonzero;stroke:none"
         id="path34" /><path
         d="m 4455.49,1835.52 c 53.35,146.4 67.18,281.78 127.5,420 66.1,151.49 146.29,299.31 120,502.5 59.12,-104.21 76.93,-256.77 67.5,-397.5 -22.95,-342.26 -234.75,-540.65 -382.5,-750 18.7,390.3 -198.76,638.16 -172.5,1035 83.55,-261.17 357.24,-464.39 240,-810 z"
         style="fill:none;stroke:#ffffff;stroke-width:10;stroke-linecap:butt;stroke-linejoin:miter;stroke-miterlimit:10;stroke-dasharray:none;stroke-opacity:1"
         id="path36" /><path
         d="m 4222.99,1288.02 c -6.38,1.38 -7.07,-2.93 -7.5,-7.5 85.51,104.69 157.01,222.38 262.5,330 121.83,124.3 248.83,237.09 285,442.5 73.47,-556.95 -401.27,-783.01 -735,-1005 162.5,260 79.11,765.89 217.5,1050 22.16,-278.41 132.64,-599.1 -22.5,-810"
         style="fill:#100f0d;fill-opacity:1;fill-rule:nonzero;stroke:none"
         id="path38" /><path
         d="m 4222.99,1288.02 c -6.38,1.38 -7.07,-2.93 -7.5,-7.5 85.51,104.69 157.01,222.38 262.5,330 121.83,124.3 248.83,237.09 285,442.5 73.47,-556.95 -401.27,-783.01 -735,-1005 162.5,260 79.11,765.89 217.5,1050 22.16,-278.41 132.64,-599.1 -22.5,-810 z"
         style="fill:none;stroke:#ffffff;stroke-width:10;stroke-linecap:butt;stroke-linejoin:miter;stroke-miterlimit:10;stroke-dasharray:none;stroke-opacity:1"
         id="path40" /><path
         d="m 555.488,1265.52 c 1.426,-6.07 7.524,-7.47 7.5,-15 -144.39,190.92 -58.437,530.69 -30,810 146.367,-273.63 61.313,-778.69 225,-1035 C 414.641,1259.67 -13.1875,1409.34 7.98828,2008.02 113.824,1683.86 405.242,1545.28 555.488,1265.52"
         style="fill:#100f0d;fill-opacity:1;fill-rule:nonzero;stroke:none"
         id="path42" /><path
         d="m 555.488,1265.52 c 1.426,-6.07 7.524,-7.47 7.5,-15 -144.39,190.92 -58.437,530.69 -30,810 146.367,-273.63 61.313,-778.69 225,-1035 C 414.641,1259.67 -13.1875,1409.34 7.98828,2008.02 113.824,1683.86 405.242,1545.28 555.488,1265.52 Z"
         style="fill:none;stroke:#ffffff;stroke-width:10;stroke-linecap:butt;stroke-linejoin:miter;stroke-miterlimit:10;stroke-dasharray:none;stroke-opacity:1"
         id="path44" /><path
         d="m 3780.49,793.02 c 245.02,239.98 667.78,302.22 840,615 -53.43,-246.31 -198.15,-402.22 -375,-525 -182.73,-126.848 -412.07,-166.75 -667.5,-225 41.38,72.082 100.61,126.699 142.5,210 40.79,81.121 66.2,176.76 97.5,270 62,184.68 152.67,345.54 262.5,472.5 -61.28,-273.73 -74.11,-660.879 -292.5,-802.5 -1.43,-6.071 -7.52,-7.481 -7.5,-15"
         style="fill:#100f0d;fill-opacity:1;fill-rule:nonzero;stroke:none"
         id="path46" /><path
         d="m 3780.49,793.02 c 245.02,239.98 667.78,302.22 840,615 -53.43,-246.31 -198.15,-402.22 -375,-525 -182.73,-126.848 -412.07,-166.75 -667.5,-225 41.38,72.082 100.61,126.699 142.5,210 40.79,81.121 66.2,176.76 97.5,270 62,184.68 152.67,345.54 262.5,472.5 -61.28,-273.73 -74.11,-660.879 -292.5,-802.5 -1.43,-6.071 -7.52,-7.481 -7.5,-15 z"
         style="fill:none;stroke:#ffffff;stroke-width:10;stroke-linecap:butt;stroke-linejoin:miter;stroke-miterlimit:10;stroke-dasharray:none;stroke-opacity:1"
         id="path48" /><path
         d="m 997.988,778.02 c 8.722,1.222 13.342,-1.661 15.002,-7.5 -217.349,132.66 -241.513,523.48 -322.502,817.5 270.434,-222.07 275.891,-709.098 532.502,-945 -259.685,61.531 -505.002,80.152 -690.002,210 -174.824,122.722 -308.98,287.61 -367.5,525 164.532,-312.97 591.742,-363.25 832.5,-600"
         style="fill:#100f0d;fill-opacity:1;fill-rule:nonzero;stroke:none"
         id="path50" /><path
         d="m 997.988,778.02 c 8.722,1.222 13.342,-1.661 15.002,-7.5 -217.349,132.66 -241.513,523.48 -322.502,817.5 270.434,-222.07 275.891,-709.098 532.502,-945 -259.685,61.531 -505.002,80.152 -690.002,210 -174.824,122.722 -308.98,287.61 -367.5,525 164.532,-312.97 591.742,-363.25 832.5,-600 z"
         style="fill:none;stroke:#ffffff;stroke-width:10;stroke-linecap:butt;stroke-linejoin:miter;stroke-miterlimit:10;stroke-dasharray:none;stroke-opacity:1"
         id="path52" /><path
         d="m 3750.49,1108.02 c -101.79,-208.219 -185.78,-499.219 -480,-540 317.5,55.011 815.72,34.269 982.5,240 -114.07,-191.11 -298.48,-357.211 -570,-382.5 -259.03,-24.129 -487.7,92.371 -727.5,112.5 376.59,78.421 517.36,392.64 795,570"
         style="fill:#100f0d;fill-opacity:1;fill-rule:nonzero;stroke:none"
         id="path54" /><path
         d="m 3750.49,1108.02 c -101.79,-208.219 -185.78,-499.219 -480,-540 317.5,55.011 815.72,34.269 982.5,240 -114.07,-191.11 -298.48,-357.211 -570,-382.5 -259.03,-24.129 -487.7,92.371 -727.5,112.5 376.59,78.421 517.36,392.64 795,570 z"
         style="fill:none;stroke:#ffffff;stroke-width:10;stroke-linecap:butt;stroke-linejoin:miter;stroke-miterlimit:10;stroke-dasharray:none;stroke-opacity:1"
         id="path56" /><path
         d="m 1027.99,1093.02 c 284.73,-170.258 418.4,-491.598 810,-555 -227.71,-38.821 -462.38,-145.961 -720,-127.5 -281.83,20.191 -460.353,185.199 -585.002,367.5 62.063,-27.649 107.129,-82.278 180,-112.5 213.852,-88.668 557.932,-51.782 810.002,-112.5 -297.39,47.609 -371.59,318.41 -495,540"
         style="fill:#100f0d;fill-opacity:1;fill-rule:nonzero;stroke:none"
         id="path58" /><path
         d="m 1027.99,1093.02 c 284.73,-170.258 418.4,-491.598 810,-555 -227.71,-38.821 -462.38,-145.961 -720,-127.5 -281.83,20.191 -460.353,185.199 -585.002,367.5 62.063,-27.649 107.129,-82.278 180,-112.5 213.852,-88.668 557.932,-51.782 810.002,-112.5 -297.39,47.609 -371.59,318.41 -495,540 z"
         style="fill:none;stroke:#ffffff;stroke-width:10;stroke-linecap:butt;stroke-linejoin:miter;stroke-miterlimit:10;stroke-dasharray:none;stroke-opacity:1"
         id="path60" /><path
         d="m 3862.99,410.52 c -116.17,-159.372 -348.4,-275.829 -592.5,-240 -115.98,17.019 -223.93,67.742 -315,120 -144.65,83.019 -220.22,217.32 -442.5,180 188.64,-106.36 368.66,-221.34 517.5,-367.5 -17.91,-42.0903 -54.75,-65.2505 -90,-90.0005 -127.44,104.2815 -228.26,231.1605 -382.5,337.5005 -42.82,29.519 -112.31,80.472 -150,82.5 -89.89,4.859 -229.69,-122.418 -300,-180 -96.65,-79.141 -165.44,-159.2895 -232.5,-247.50047 -52.04,10.46097 -66.57,58.42967 -112.5,74.99997 144.04,158.4605 319.78,285.2225 525,382.5005 -30.65,23.781 -99.04,20.859 -142.5,7.5 -233.34,-71.758 -395.63,-355.911 -795,-315 -182.57,18.699 -300.81,114.25 -420.002,225 74.472,-20.801 155.802,-66.348 255.002,-75 445.12,-38.821 743.18,387.839 1215,195 461.09,195.359 766.46,-212.321 1192.5,-180 107.77,8.179 189.27,40.718 270,90"
         style="fill:#100f0d;fill-opacity:1;fill-rule:nonzero;stroke:none"
         id="path62" /><path
         d="m 3862.99,410.52 c -116.17,-159.372 -348.4,-275.829 -592.5,-240 -115.98,17.019 -223.93,67.742 -315,120 -144.65,83.019 -220.22,217.32 -442.5,180 188.64,-106.36 368.66,-221.34 517.5,-367.5 -17.91,-42.0903 -54.75,-65.2505 -90,-90.0005 -127.44,104.2815 -228.26,231.1605 -382.5,337.5005 -42.82,29.519 -112.31,80.472 -150,82.5 -89.89,4.859 -229.69,-122.418 -300,-180 -96.65,-79.141 -165.44,-159.2895 -232.5,-247.50047 -52.04,10.46097 -66.57,58.42967 -112.5,74.99997 144.04,158.4605 319.78,285.2225 525,382.5005 -30.65,23.781 -99.04,20.859 -142.5,7.5 -233.34,-71.758 -395.63,-355.911 -795,-315 -182.57,18.699 -300.81,114.25 -420.002,225 74.472,-20.801 155.802,-66.348 255.002,-75 445.12,-38.821 743.18,387.839 1215,195 461.09,195.359 766.46,-212.321 1192.5,-180 107.77,8.179 189.27,40.718 270,90 z"
         style="fill:none;stroke:#ffffff;stroke-width:10;stroke-linecap:butt;stroke-linejoin:miter;stroke-miterlimit:10;stroke-dasharray:none;stroke-opacity:1"
         id="path64" /><path
         d="m 2970.49,3005.52 c 1.22,-8.72 -1.66,-13.34 -7.5,-15 120.66,73.5 309.78,487.74 361.77,405.18 33.71,-47.83 -85.19,-170.86 -74.34,-213.63 25.16,-7.32 90.89,191.13 126.84,198.63 90.35,18.85 -0.25,-184.63 -22.89,-239.79 -43.62,-106.21 -88.28,-170.68 -98.88,-240.39 172.6,32.53 247.45,202.38 405,225 68.18,-30.67 -85.85,-138.72 -135,-195 17.56,-12.5 53.59,53.07 90,22.5 44.47,-63.72 -113.17,-155.31 -195,-225 -126.07,-107.34 -183.87,-302.42 -352.5,-375 -122.92,-127.07 -220.85,-279.15 -330,-420 133.38,-88.37 294.77,-151.2 427.5,-285 75.66,-76.27 186.37,-244.96 120,-382.5 -41.78,-86.58 -191.41,-252.48 -300,-247.5 -55.39,2.54 -116.28,65.86 -165,105 -151.56,121.78 -311.65,222.47 -420,375 -125,-140.75 -272.55,-243.05 -435,-375 -44.02,-35.75 -110.09,-100.63 -157.5,-105 -122.58,-11.28 -280.19,169.18 -315,262.5 -49.87,133.67 44.95,280.94 120,360 131.83,138.9 291.87,205.13 435,285 -101.1,148.91 -211.71,288.29 -322.5,427.5 -157.65,49.11 -222.04,242.9 -337.5,352.5 -80.87,76.75 -245,177.5 -217.5,247.5 36.8,23.34 64.28,-18.21 90,-30 -40.53,67.38 -149.66,104.79 -135,202.5 32.5,90 248.17,-190.65 397.5,-225 3.75,60.69 -46.17,133.09 -90,240 -22.52,54.93 -98.02,236.57 -15,247.5 52.22,6.88 101.24,-171.24 129.81,-207.94 13.82,37.63 -96.08,172.46 -69.81,222.94 56.77,54.62 142.34,-105.37 187.5,-180 49.52,-81.83 94.52,-169.08 150,-232.5 -17.98,45.3 -74.61,153.56 0,180 38.92,-53.04 77.19,-111.22 127.5,-180 39.15,-53.53 113.94,-119.32 127.5,-172.5 25.41,-99.64 -12.54,-197.32 15,-277.5 24.81,-72.22 111.28,-135.35 150,-187.5 50.17,-67.57 92.65,-123.86 157.5,-172.5 123.95,96.05 197.65,242.35 307.5,352.5 4.99,97.51 3.52,230.41 15,292.5 11.47,62.1 174.41,220.59 247.5,345 79.45,-9.91 34.38,-130.91 7.5,-165"
         style="fill:#100f0d;fill-opacity:1;fill-rule:nonzero;stroke:none"
         id="path66" /><path
         d="m 4327.99,3058.02 c -59.34,195.68 -99.26,515.73 -240,630 325.98,-88.24 362.28,-442.55 337.5,-877.5 -166.41,261.09 -518.12,336.89 -577.5,705 35.18,-9.4 49.14,-63.08 75,-90 117.04,-121.82 323.01,-184.54 397.5,-352.5 6.38,1.38 7.07,-2.92 7.5,-7.5 0,-2.5 0,-5 0,-7.5"
         style="fill:#100f0d;fill-opacity:1;fill-rule:nonzero;stroke:none"
         id="path68" /><path
         d="m 4327.99,3058.02 c -59.34,195.68 -99.26,515.73 -240,630 325.98,-88.24 362.28,-442.55 337.5,-877.5 -166.41,261.09 -518.12,336.89 -577.5,705 35.18,-9.4 49.14,-63.08 75,-90 117.04,-121.82 323.01,-184.54 397.5,-352.5 6.38,1.38 7.07,-2.92 7.5,-7.5 0,-2.5 0,-5 0,-7.5 z"
         style="fill:none;stroke:#ffffff;stroke-width:10;stroke-linecap:butt;stroke-linejoin:miter;stroke-miterlimit:10;stroke-dasharray:none;stroke-opacity:1"
         id="path70" /><path
         d="m 660.488,3658.02 c -143.633,-123.87 -155.918,-444.07 -240,-652.5 101.575,225.93 360.364,294.64 487.5,495 -45.105,-382.39 -406.125,-448.88 -555,-727.5 2.965,127.23 -24.644,307.87 -15,442.5 14.633,204.3 127.918,366.51 322.5,442.5"
         style="fill:#100f0d;fill-opacity:1;fill-rule:nonzero;stroke:none"
         id="path72" /><path
         d="m 660.488,3658.02 c -143.633,-123.87 -155.918,-444.07 -240,-652.5 101.575,225.93 360.364,294.64 487.5,495 -45.105,-382.39 -406.125,-448.88 -555,-727.5 2.965,127.23 -24.644,307.87 -15,442.5 14.633,204.3 127.918,366.51 322.5,442.5 z"
         style="fill:none;stroke:#ffffff;stroke-width:10;stroke-linecap:butt;stroke-linejoin:miter;stroke-miterlimit:10;stroke-dasharray:none;stroke-opacity:1"
         id="path74" /><path
         d="m 307.988,1835.52 c -57.73,344.22 165.403,526.71 247.5,780 41.762,-405.12 -192.086,-636.75 -150,-1042.5 -181.429,236.34 -430.6208,470.99 -397.49972,907.5 6.40232,84.38 32.26172,148.61 52.50002,232.5 8.5586,-366.44 215.7847,-534.22 247.4997,-877.5"
         style="fill:#100f0d;fill-opacity:1;fill-rule:nonzero;stroke:none"
         id="path76" /><path
         d="m 307.988,1835.52 c -57.73,344.22 165.403,526.71 247.5,780 41.762,-405.12 -192.086,-636.75 -150,-1042.5 -181.429,236.34 -430.6208,470.99 -397.49972,907.5 6.40232,84.38 32.26172,148.61 52.50002,232.5 8.5586,-366.44 215.7847,-534.22 247.4997,-877.5 z"
         style="fill:none;stroke:#ffffff;stroke-width:10;stroke-linecap:butt;stroke-linejoin:miter;stroke-miterlimit:10;stroke-dasharray:none;stroke-opacity:1"
         id="path78" /></g></g></svg>
